<svg t="1521630571569" class="icon" viewBox="0 0 1024 1024" version="1.1" xmlns="http://www.w3.org/2000/svg" p-id="3522"
  width="25" height="25">
  <path d="M256 682.666667 768 682.666667 768 768 256 768 256 682.666667M256 554.666667 256 640 85.333333 640 85.333333 554.666667 256 554.666667M298.666667 640 298.666667 554.666667 426.666667 554.666667 426.666667 640 298.666667 640M469.333333 640 469.333333 554.666667 554.666667 554.666667 554.666667 640 469.333333 640M597.333333 640 597.333333 554.666667 725.333333 554.666667 725.333333 640 597.333333 640M768 640 768 554.666667 938.666667 554.666667 938.666667 640 768 640M85.333333 426.666667 213.333333 426.666667 213.333333 512 85.333333 512 85.333333 426.666667M810.666667 512 810.666667 426.666667 938.666667 426.666667 938.666667 512 810.666667 512M768 512 682.666667 512 682.666667 426.666667 768 426.666667 768 512M341.333333 512 256 512 256 426.666667 341.333333 426.666667 341.333333 512M512 512 384 512 384 426.666667 512 426.666667 512 512M640 512 554.666667 512 554.666667 426.666667 640 426.666667 640 512M85.333333 384 85.333333 298.666667 170.666667 298.666667 170.666667 384 85.333333 384M213.333333 384 213.333333 298.666667 298.666667 298.666667 298.666667 384 213.333333 384M341.333333 384 341.333333 298.666667 426.666667 298.666667 426.666667 384 341.333333 384M469.333333 384 469.333333 298.666667 554.666667 298.666667 554.666667 384 469.333333 384M597.333333 384 597.333333 298.666667 682.666667 298.666667 682.666667 384 597.333333 384M725.333333 384 725.333333 298.666667 938.666667 298.666667 938.666667 384 725.333333 384Z"
    p-id="3523"></path>
</svg>