<svg t="1521647291981" class="icon" viewBox="0 0 2459 1024" version="1.1" xmlns="http://www.w3.org/2000/svg" p-id="26784"
  width="55" height="23">
  <path d="M83.530516 1008.976526c-37.859155 0-68.507042-30.647887-68.507042-68.507042V83.530516c0-37.859155 30.647887-68.507042 68.507042-68.507042h2291.981221c37.859155 0 68.507042 30.647887 68.507042 68.507042v856.338029c0 37.859155-30.647887 68.507042-68.507042 68.507042H83.530516"
    fill="#ECEEF8" p-id="26785"></path>
  <path d="M2375.511737 30.046948c29.446009 0 53.483568 24.037559 53.483568 53.483568v856.338029c0 29.446009-24.037559 53.483568-53.483568 53.483568H83.530516c-29.446009 0-53.483568-24.037559-53.483568-53.483568V83.530516C30.046948 54.084507 54.084507 30.046948 83.530516 30.046948h2291.981221m0-30.046948H83.530516C37.859155 0 0 37.859155 0 83.530516v856.338029c0 46.2723 37.859155 83.530516 83.530516 83.530516h2291.981221c46.2723 0 83.530516-37.859155 83.530517-83.530516V83.530516C2459.643192 37.859155 2421.784038 0 2375.511737 0z"
    fill="#C2CCDC" p-id="26786"></path>
  <path d="M2375.511737 41.464789c23.43662 0 42.065728 18.629108 42.065728 42.065727v856.338029c0 23.43662-18.629108 42.065728-42.065728 42.065727H83.530516c-23.43662 0-42.065728-18.629108-42.065727-42.065727V83.530516c0-23.43662 18.629108-42.065728 42.065727-42.065727h2291.981221m0-11.417841H83.530516C54.084507 30.046948 30.046948 54.084507 30.046948 83.530516v856.338029c0 29.446009 24.037559 53.483568 53.483568 53.483568h2291.981221c29.446009 0 53.483568-24.037559 53.483568-53.483568V83.530516c0.600939-29.446009-23.43662-53.483568-53.483568-53.483568z"
    fill="#FFFFFF" p-id="26787"></path>
  <path d="M284.84507 823.887324c-14.422535 0-26.441315-12.018779-26.441314-26.441315V482.553991c0-14.422535 12.018779-26.441315 26.441314-26.441315h167.061033c12.619718 0 24.037559 9.615023 25.840376 22.234742l1.201878 7.211267 9.615023-7.812206 86.535212-160.450704c2.403756-4.206573 4.206573-9.014085 5.40845-13.821597 1.201878-4.807512 1.802817-9.615023 1.201878-15.023474l-7.812206-105.765258 4.206572-3.605634c12.018779-9.615023 27.042254-15.023474 42.065728-15.023474 24.638498 0 48.676056 15.624413 67.906103 43.868545 17.42723 26.441315 28.244131 60.694836 28.244132 91.943662 0 8.413146-0.600939 16.225352-1.802817 24.638497l-10.816901 70.309859H865.352113c18.629108 0 37.258216 7.812207 51.079812 21.633803 13.220657 13.220657 19.830986 30.046948 19.830986 48.075118 0 15.624413-5.408451 30.046948-14.422535 42.065727l-2.403756 3.004695 2.403756 2.403756c13.220657 12.619718 21.032864 30.647887 21.032863 49.276995 0 24.037559-12.018779 46.2723-33.051643 58.892019l-3.004695 1.802817 1.201878 3.004695c3.605634 8.413146 5.408451 17.42723 5.408451 26.441314 0 27.643192-16.225352 52.28169-41.464789 63.098592l-3.004695 1.201878 0.600939 3.605634c1.201878 5.408451 1.802817 10.816901 1.802817 16.225352 0 36.657277-28.84507 66.704225-64.901408 68.507042H554.666667c-1.802817 0-40.262911 0-69.708921-25.840376l-6.610328-5.40845v24.037558c0 14.422535-12.018779 26.441315-26.441315 26.441315H284.84507z"
    fill="#FFFFFF" p-id="26788"></path>
  <path d="M1088.300469 764.394366V326.309859h59.492958v382.197183h211.530517v55.887324h-271.023475M1440.450704 372.58216c-25.840376 0-37.859155-19.830986-37.859155-41.464789 0-21.633803 12.018779-41.464789 37.859155-41.464789s37.859155 19.830986 37.859155 41.464789c0 22.234742-12.018779 41.464789-37.859155 41.464789m-28.84507 391.812206V442.29108l57.690141-9.014085v331.71831h-57.690141zM1608.112676 606.347418v158.046948H1550.422535V292.056338l57.690141-9.014084v307.680751h1.201878l132.807512-147.230047H1814.835681l-147.230047 152.037558 147.830986 168.86385h-73.314554l-132.807512-158.046948h-1.201878M1875.530516 613.558685c2.403756 63.098592 43.868545 108.169014 105.765259 108.169015 33.652582 0 70.309859-9.014085 96.150234-26.441315l10.816902 53.483568c-28.84507 17.42723-67.305164 26.441315-108.169014 26.441315-96.751174 0-162.85446-69.107981-162.85446-167.661972 0-103.962441 68.507042-174.2723 158.647887-174.272301 77.521127 0 122.591549 49.276995 122.591549 125.596244 0 17.42723-3.004695 37.258216-7.211267 51.079813l-215.73709 1.201878v2.403755m167.661972-46.2723v-4.807512c0-47.474178-22.234742-79.323944-72.713615-79.323943-54.685446 0-87.13615 43.267606-91.943662 85.333333l164.657277-1.201878z"
    fill="#4767AB" p-id="26789"></path>
  <path d="M554.666667 808.86385c-1.802817 0-41.464789-0.600939-72.112676-26.441315-2.403756-2.403756-4.807512-3.605634-7.211268-4.807512l-22.835681-10.215962v-264.413146l32.450704-27.643192 86.535212-159.849765c2.403756-3.605634 4.206573-8.413146 5.40845-12.619719 1.201878-4.206573 1.201878-9.014085 1.201878-13.821596l-8.413145-107.568075 6.00939-4.807512c12.619718-10.215962 28.244131-16.225352 44.469483-16.225352 56.488263 0 100.356808 75.117371 100.356808 140.01878 0 8.413146-0.600939 16.826291-1.802817 25.239436l-10.215963 65.502348H865.352113c19.830986 0 39.661972 8.413146 54.084507 22.83568 13.821596 13.821596 21.032864 31.849765 21.032864 50.478874 0 16.225352-5.408451 31.849765-15.624414 44.469483 13.821596 13.821596 22.234742 32.450704 22.234742 52.28169 0 25.840376-13.220657 49.276995-34.85446 62.497653 3.605634 9.014085 6.00939 18.629108 6.00939 28.244131 0 30.046948-18.028169 55.887324-43.868545 66.704226 1.201878 5.408451 1.802817 11.41784 1.802817 17.42723 0 38.460094-30.046948 70.309859-69.107981 72.713615h-252.394366z m-72.112676-60.694836l5.40845 2.403756c4.807512 2.403756 9.014085 4.807512 13.821597 9.014084 22.234742 18.629108 52.28169 19.230047 53.483568 19.230047h250.591549c22.835681-1.201878 40.86385-20.431925 40.86385-43.267605 0-7.211268-1.802817-13.821596-4.807512-19.830986l-9.615024-18.028169 19.830986-3.605634c21.032864-3.605634 36.056338-21.633803 36.056338-42.666667 0-9.615023-3.004695-18.629108-9.014084-25.840375l-12.619718-16.826291 19.830986-6.00939c18.028169-5.408451 30.647887-22.234742 30.647887-41.464789 0-15.624413-8.413146-30.046948-22.234742-37.859155l-19.230047-10.816901 18.028169-13.220657c10.816901-8.413146 17.42723-21.032864 17.42723-34.253521 0-10.816901-4.206573-21.633803-12.619718-30.046949C889.389671 426.065728 877.370892 420.657277 865.352113 420.657277h-191.098592l15.624413-99.15493c1.201878-6.610329 1.802817-13.821596 1.802817-20.431924 0-49.877934-32.450704-110.57277-70.910798-110.57277-7.211268 0-13.821596 1.802817-19.830986 5.40845l7.211268 91.943662c0.600939 7.812207 0 15.624413-1.802817 22.835681-1.802817 7.211268-4.807512 14.422535-8.413146 20.431925L508.394366 493.971831l-26.441314 22.234742v231.962441z"
    fill="#1E252D" p-id="26790"></path>
  <path d="M270.422535 470.535211c-0.600939 0-1.201878 0.600939-1.201878 0.600939v340.732395c0 0.600939 0.600939 0.600939 1.201878 0.600939h196.507042c0.600939 0 1.201878-0.600939 1.201878-0.600939V471.737089c0-0.600939-0.600939-0.600939-1.201878-0.600939H270.422535z"
    fill="#4767AB" p-id="26791"></path>
  <path d="M451.906103 828.093897H284.84507c-16.826291 0-30.046948-13.821596-30.046948-30.046949V482.553991c0-16.826291 13.821596-30.046948 30.046948-30.046949h167.061033c16.826291 0 30.046948 13.821596 30.046949 30.046949v315.492957c0.600939 16.225352-13.220657 30.046948-30.046949 30.046949zM284.84507 481.352113c-0.600939 0-0.600939 0.600939-0.600939 0.600939v315.492957c0 0.600939 0.600939 0.600939 0.600939 0.600939h167.061033c0.600939 0 0.600939-0.600939 0.600939-0.600939V482.553991c0-0.600939-0.600939-0.600939-0.600939-0.600939H284.84507z"
    fill="#1E252D" p-id="26792"></path>
</svg>